<svg xmlns="http://www.w3.org/2000/svg" viewBox="0 0 36 36"><path d="M4 5a4 4 0 00-4 4v.73h8.88l3.315-.001a125.233 125.233 0 012.258 3.062 68.866 68.866 0 011.96 2.611c.15.201.1.25.501-.302a80.009 80.009 0 012.61-3.362A21.633 21.633 0 0121.08 9.78l.05-.05H36V9s0-4-4-4H4zm-4 7.691V27a4 4 0 004 4h28a4 4 0 004-4V12.691h-9.5l-2.209.051v2.961l2.258.049h2.209v3.113a42.715 42.715 0 00-4.467.05 277.823 277.823 0 01-.05 9.788h-3.112V15.502a222.811 222.811 0 00-2.861 3.314l-.051.1-.049 4.867v4.92h-3.213l-.049-6.775c0-3.163 0-2.91-.2-3.112a52.704 52.704 0 01-2.06-2.56 8.131 8.131 0 01-.601-.754c-.151-.151-.201-.15-.201.05a494.962 494.962 0 00.1 6.475 222.41 222.41 0 00.05 6.426v.25l-.05.05h-1.507l-1.556-.05V12.691H0z"/></svg>